<svg width="32" height="32" viewBox="0 0 32 32" fill="none" xmlns="http://www.w3.org/2000/svg">
<path d="M32 16C32 24.8364 24.8364 32 16 32C7.16444 32 0 24.8364 0 16C0 7.16444 7.16444 0 16 0C24.8364 0 32 7.16444 32 16Z" fill="#FFCC4D"/>
<path d="M14.2222 16C13.8498 16 13.5031 15.7644 13.3787 15.392C13.1982 14.8595 12.4747 13.3333 11.5556 13.3333C10.6116 13.3333 9.87733 14.9573 9.73245 15.392C9.57689 15.8569 9.07644 16.1102 8.608 15.9538C8.14222 15.7991 7.89067 15.2951 8.04622 14.8293C8.15733 14.4951 9.20533 11.5555 11.5556 11.5555C13.9058 11.5555 14.9538 14.4951 15.0658 14.8302C15.2213 15.296 14.9698 15.8 14.504 15.9547C14.4098 15.9849 14.3147 16 14.2222 16ZM23.1111 16C22.7387 16 22.392 15.7644 22.2684 15.392C22.088 14.8595 21.3627 13.3333 20.4444 13.3333C19.5004 13.3333 18.7653 14.9573 18.6204 15.392C18.4649 15.8569 17.9662 16.1102 17.496 15.9538C17.0311 15.7991 16.7787 15.2951 16.9342 14.8293C17.0462 14.4951 18.0933 11.5555 20.4444 11.5555C22.7956 11.5555 23.8427 14.4951 23.9538 14.8302C24.1093 15.296 23.8578 15.8 23.392 15.9547C23.2987 15.9849 23.2036 16 23.1111 16ZM16 19.5555C12.7796 19.5555 10.6427 19.1804 8 18.6667C7.39644 18.5502 6.22222 18.6667 6.22222 20.4444C6.22222 24 10.3067 28.4444 16 28.4444C21.6924 28.4444 25.7778 24 25.7778 20.4444C25.7778 18.6667 24.6036 18.5493 24 18.6667C21.3573 19.1804 19.2204 19.5555 16 19.5555Z" fill="#B83341"/>
<path d="M8 20.4445C8 20.4445 10.6667 21.3333 16 21.3333C21.3333 21.3333 24 20.4445 24 20.4445C24 20.4445 22.8053 26.4445 16 26.4445C9.19467 26.4445 8 20.4445 8 20.4445Z" fill="white"/>
<path d="M15.9998 24.528C12.8034 24.528 10.4247 24.1973 8.9447 23.8658L8.21137 22.2027C8.94293 22.48 11.6683 23 16.0007 23C20.4043 23 23.1447 22.4525 23.8798 22.1662L23.2567 23.8036C21.8043 24.1413 19.3287 24.528 15.9998 24.528Z" fill="#B83341"/>
</svg>
